P1
# natechoe.dev black and white 88x31 button, for when hotlinking isn't an
# option.
# there's a makefile script that converts this into a png.
88 31
1111111111111111111111111111111111111111111111111111111111111111111111111111111111111111
1000000000000000000000000000000000000000000000000000000000000000000000000000000000000001
1000000000000000000000010001011111010000001110001110010001011111000000000000000000000001
1000000000000000000000010001010000010000010001010001011011010000000000000000000000000001
1000000000000000000000010001010000010000010000010001010101010000000000000000000000000001
1000000000000000000000010001011111010000010000010001010001011111000000000000000000000001
1000000000000000000000010101010000010000010000010001010001010000000000000000000000000001
1000000000000000000000010101010000010000010001010001010001010000000000000000000000000001
1000000000000000000000001010011111011111001110001110010001011111000000000000000000000001
1000000000000000000000000000000000000000000000000000000000000000000000000000000000000001
1000000000000000011000110011111000111110011000110011111100111110001111100000000000000001
1000000000000000011000110111111101111111011001110111111101111111011111110000000000000001
1000000000000000011000110110001101100011011011100110000001100011011000110000000000000001
1000000000000000011000110110001101100000011111000110000001100011011000000000000000000001
1000000000000000011000110110001101100000011110000110000001100110011000000000000000000001
1000000000000000011111110111111101100000011100000111111101111100011111100000000000000001
1000000000000000011111110111111101100000011100000111111101111110000111100000000000000001
1000000000000000011000110110001101100000011110000110000001100011000000110000000000000001
1000000000000000011000110110001101100000011111000110000001100011000000110000000000000001
1000000000000000011000110110001101100011011011100110000001100011011000110000000000000001
1000000000000000011000110110001101111111011001110111111101100011011111110000000000000001
1000000000000000011000110110001100111110011000110011111101100011001111100000000000000001
1000000000000000000000000000000000000000000000000000000000000000000000000000000000000001
1000000000000000000000000000000000000000000000000000000000000000000000000000000000000001
1000000001000100111001111101111100111001000100111001111100000011110011111010001000000001
1000000001100101000100010001000001000101000101000101000000000010001010000010001000000001
1000000001010101111100010001111101000001111101000101111101110010001011111001010000000001
1000000001001101000100010001000001000101000101000101000001110010001010000001010000000001
1000000001000101000100010001111100111001000100111001111101110011110011111000100000000001
1000000000000000000000000000000000000000000000000000000000000000000000000000000000000001
1111111111111111111111111111111111111111111111111111111111111111111111111111111111111111
